<mxfile host="app.diagrams.net" modified="2024-02-01T02:11:38.742Z" agent="Mozilla/5.0 (Windows NT 10.0; Win64; x64) AppleWebKit/537.36 (KHTML, like Gecko) Chrome/121.0.0.0 Safari/537.36" etag="89DrPpBCx1fqumJYXDO6" version="23.1.0" type="github">
  <diagram name="第 1 页" id="3UtF9YjXghsBeAw7bVjW">
    <mxGraphModel dx="977" dy="495" grid="0" gridSize="10" guides="1" tooltips="1" connect="1" arrows="1" fold="1" page="1" pageScale="1" pageWidth="827" pageHeight="1169" math="0" shadow="0">
      <root>
        <mxCell id="0" />
        <mxCell id="1" parent="0" />
        <mxCell id="55QKVpDyIuGKvpGjM4zQ-11" value="" style="edgeStyle=orthogonalEdgeStyle;rounded=0;orthogonalLoop=1;jettySize=auto;html=1;" parent="1" source="55QKVpDyIuGKvpGjM4zQ-1" target="55QKVpDyIuGKvpGjM4zQ-5" edge="1">
          <mxGeometry relative="1" as="geometry" />
        </mxCell>
        <mxCell id="55QKVpDyIuGKvpGjM4zQ-1" value="开始" style="rounded=1;whiteSpace=wrap;html=1;" parent="1" vertex="1">
          <mxGeometry x="330" y="50" width="80" height="30" as="geometry" />
        </mxCell>
        <mxCell id="55QKVpDyIuGKvpGjM4zQ-2" value="yaml配置多数据源的连接信息" style="rounded=0;whiteSpace=wrap;html=1;" parent="1" vertex="1">
          <mxGeometry x="286.25" y="120" width="167.5" height="30" as="geometry" />
        </mxCell>
        <mxCell id="55QKVpDyIuGKvpGjM4zQ-13" value="" style="edgeStyle=orthogonalEdgeStyle;rounded=0;orthogonalLoop=1;jettySize=auto;html=1;" parent="1" source="55QKVpDyIuGKvpGjM4zQ-3" target="55QKVpDyIuGKvpGjM4zQ-8" edge="1">
          <mxGeometry relative="1" as="geometry" />
        </mxCell>
        <mxCell id="55QKVpDyIuGKvpGjM4zQ-3" value="将yml数据源进行注册并成员常量对应放入map中" style="rounded=0;whiteSpace=wrap;html=1;" parent="1" vertex="1">
          <mxGeometry x="281" y="250" width="178" height="40" as="geometry" />
        </mxCell>
        <mxCell id="55QKVpDyIuGKvpGjM4zQ-16" style="edgeStyle=orthogonalEdgeStyle;rounded=0;orthogonalLoop=1;jettySize=auto;html=1;exitX=0.5;exitY=1;exitDx=0;exitDy=0;entryX=0.5;entryY=0;entryDx=0;entryDy=0;" parent="1" source="55QKVpDyIuGKvpGjM4zQ-5" target="55QKVpDyIuGKvpGjM4zQ-3" edge="1">
          <mxGeometry relative="1" as="geometry" />
        </mxCell>
        <mxCell id="55QKVpDyIuGKvpGjM4zQ-5" value="编写常量类的每个成员常量与每个数据源对应" style="rounded=0;whiteSpace=wrap;html=1;" parent="1" vertex="1">
          <mxGeometry x="282.5" y="180" width="175" height="40" as="geometry" />
        </mxCell>
        <mxCell id="55QKVpDyIuGKvpGjM4zQ-27" style="edgeStyle=orthogonalEdgeStyle;rounded=0;orthogonalLoop=1;jettySize=auto;html=1;exitX=0.5;exitY=1;exitDx=0;exitDy=0;entryX=0.5;entryY=0;entryDx=0;entryDy=0;" parent="1" source="55QKVpDyIuGKvpGjM4zQ-6" target="55QKVpDyIuGKvpGjM4zQ-9" edge="1">
          <mxGeometry relative="1" as="geometry" />
        </mxCell>
        <mxCell id="55QKVpDyIuGKvpGjM4zQ-6" value="自定义注解类，通过方法调用上添加注解实现动态切换数据源" style="rounded=0;whiteSpace=wrap;html=1;" parent="1" vertex="1">
          <mxGeometry x="281" y="483" width="178" height="40" as="geometry" />
        </mxCell>
        <mxCell id="55QKVpDyIuGKvpGjM4zQ-26" style="edgeStyle=orthogonalEdgeStyle;rounded=0;orthogonalLoop=1;jettySize=auto;html=1;exitX=0.5;exitY=1;exitDx=0;exitDy=0;entryX=0.5;entryY=0;entryDx=0;entryDy=0;" parent="1" source="55QKVpDyIuGKvpGjM4zQ-7" target="55QKVpDyIuGKvpGjM4zQ-6" edge="1">
          <mxGeometry relative="1" as="geometry" />
        </mxCell>
        <mxCell id="55QKVpDyIuGKvpGjM4zQ-7" value="实现AbstractRoutingDataSource类，重写方法" style="rounded=0;whiteSpace=wrap;html=1;" parent="1" vertex="1">
          <mxGeometry x="281" y="410" width="178" height="40" as="geometry" />
        </mxCell>
        <mxCell id="55QKVpDyIuGKvpGjM4zQ-17" style="edgeStyle=orthogonalEdgeStyle;rounded=0;orthogonalLoop=1;jettySize=auto;html=1;entryX=0.5;entryY=0;entryDx=0;entryDy=0;" parent="1" source="55QKVpDyIuGKvpGjM4zQ-8" target="55QKVpDyIuGKvpGjM4zQ-7" edge="1">
          <mxGeometry relative="1" as="geometry" />
        </mxCell>
        <mxCell id="55QKVpDyIuGKvpGjM4zQ-8" value="将ThreadLocal的变量与当前数据源绑定" style="rounded=0;whiteSpace=wrap;html=1;" parent="1" vertex="1">
          <mxGeometry x="280.5" y="330" width="179" height="40" as="geometry" />
        </mxCell>
        <mxCell id="55QKVpDyIuGKvpGjM4zQ-28" style="edgeStyle=orthogonalEdgeStyle;rounded=0;orthogonalLoop=1;jettySize=auto;html=1;exitX=0.5;exitY=1;exitDx=0;exitDy=0;entryX=0.5;entryY=0;entryDx=0;entryDy=0;" parent="1" source="55QKVpDyIuGKvpGjM4zQ-9" target="55QKVpDyIuGKvpGjM4zQ-10" edge="1">
          <mxGeometry relative="1" as="geometry" />
        </mxCell>
        <mxCell id="55QKVpDyIuGKvpGjM4zQ-9" value="使用AOP在调用自定义注解修饰方法的时候进行数据源的切换" style="rounded=0;whiteSpace=wrap;html=1;" parent="1" vertex="1">
          <mxGeometry x="281" y="556" width="178" height="40" as="geometry" />
        </mxCell>
        <mxCell id="55QKVpDyIuGKvpGjM4zQ-10" value="结束" style="rounded=1;whiteSpace=wrap;html=1;" parent="1" vertex="1">
          <mxGeometry x="330" y="640" width="80" height="30" as="geometry" />
        </mxCell>
      </root>
    </mxGraphModel>
  </diagram>
</mxfile>
